<svg width="54" height="54" viewBox="0 0 54 54" fill="none" xmlns="http://www.w3.org/2000/svg">
<path d="M24.581 7.82732C24.8038 7.37516 25.1487 6.99441 25.5768 6.72816C26.0048 6.46191 26.4988 6.3208 27.0029 6.3208C27.507 6.3208 28.001 6.46191 28.429 6.72816C28.857 6.99441 29.202 7.37516 29.4248 7.82732L34.6358 18.387L46.2917 20.0799C46.7904 20.1523 47.2588 20.3629 47.6441 20.6877C48.0294 21.0125 48.316 21.4387 48.4717 21.918C48.6273 22.3973 48.6457 22.9105 48.5248 23.3997C48.4039 23.8889 48.1485 24.3345 47.7875 24.6861L39.3527 32.9076L41.3453 44.5149C41.4304 45.0115 41.3748 45.5219 41.185 45.9885C40.9951 46.4551 40.6785 46.8593 40.2709 47.1554C39.8633 47.4515 39.381 47.6276 38.8785 47.6639C38.3761 47.7002 37.8735 47.5952 37.4276 47.3607L27.0056 41.8797L16.5782 47.3607C16.1324 47.5944 15.6301 47.6988 15.1281 47.6622C14.6261 47.6255 14.1443 47.4493 13.7371 47.1533C13.33 46.8574 13.0137 46.4535 12.8239 45.9873C12.6341 45.5211 12.5785 45.0111 12.6632 44.5149L14.6531 32.9049L6.21828 24.6861C5.85728 24.3345 5.60188 23.8889 5.48097 23.3997C5.36006 22.9105 5.37847 22.3973 5.53411 21.918C5.68975 21.4387 5.97641 21.0125 6.36167 20.6877C6.74692 20.3629 7.21539 20.1523 7.71408 20.0799L19.37 18.387L24.581 7.82732Z" fill="url(#paint0_linear_176_54)"/>
<path d="M38.4973 15.7773C37.7063 16.0544 36.9458 15.2939 37.2229 14.5029L39.3119 8.54003C39.5555 7.84471 40.4418 7.64258 40.9628 8.16354L44.8367 12.0375C45.3576 12.5584 45.1555 13.4448 44.4602 13.6883L38.4973 15.7773Z" fill="url(#paint1_linear_176_54)"/>
<path d="M16.3337 14.574C16.6108 15.365 15.8503 16.1255 15.0593 15.8483L9.09642 13.7594C8.40111 13.5158 8.19898 12.6295 8.71994 12.1085L12.5939 8.23461C13.1148 7.71365 14.0011 7.91578 14.2447 8.61109L16.3337 14.574Z" fill="url(#paint2_linear_176_54)"/>
<path d="M26.0989 45.873C26.4622 45.1177 27.5378 45.1177 27.9011 45.873L30.6404 51.5664C30.9598 52.2303 30.476 53 29.7393 53H24.2607C23.524 53 23.0402 52.2303 23.3596 51.5664L26.0989 45.873Z" fill="url(#paint3_linear_176_54)"/>
<defs>
<linearGradient id="paint0_linear_176_54" x1="40.0002" y1="42.5" x2="25.5002" y2="2" gradientUnits="userSpaceOnUse">
<stop offset="0.107407" stop-color="#FF6C08"/>
<stop offset="0.97505" stop-color="#FFBF00"/>
</linearGradient>
<linearGradient id="paint1_linear_176_54" x1="37.5002" y1="15.4436" x2="46.0002" y2="7.4436" gradientUnits="userSpaceOnUse">
<stop stop-color="#FF6C08"/>
<stop offset="0.589654" stop-color="#FFBF00"/>
</linearGradient>
<linearGradient id="paint2_linear_176_54" x1="16" y1="15.571" x2="8" y2="7.07104" gradientUnits="userSpaceOnUse">
<stop stop-color="#FF6C08"/>
<stop offset="0.589654" stop-color="#FFBF00"/>
</linearGradient>
<linearGradient id="paint3_linear_176_54" x1="27.0399" y1="45.4039" x2="26.6863" y2="57.0711" gradientUnits="userSpaceOnUse">
<stop stop-color="#FF6C08"/>
<stop offset="0.589654" stop-color="#FFBF00"/>
</linearGradient>
</defs>
</svg>
