<?xml version="1.0" encoding="UTF-8"?>
<svg id="uuid-4af13c01-4de3-4839-a55e-a8728f9f434a" data-name="Layer 1" xmlns="http://www.w3.org/2000/svg" viewBox="0 0 80 80">
  <path d="M53.14,11.82c1.21-2.81-.87-5.81,3.97-4.5,3.53.97,4.89,4.65,5.27,7.89,1.35,11.28.19,23.28.19,34.65-10.36,2.32-8.9-12.87-9.24-18.39-.53-8.57-7.74-16.4-16.99-13.74-8.95,2.56-12.58,12.34-8.08,20.23,2.03,3.53,5.23,5.57,9.19,6.24,3.34.58,6.73.39,8.13,4.16,3.44,9.15-11.18,5.23-15.2,3.63-7.45-3-11.9-9.68-13.26-17.42-1.4-7.98,1.31-15.29,7.4-20.57,8.66-7.45,18.82-7.36,28.6-2.18Z" fill="#479271" stroke-width="0"/>
  <path d="M62.82,56.97c-3.24,8.66-9,14.13-17.81,15.63-9.24,1.55-17.28-.92-22.65-9.19-1.16-1.79-.29-3.44,1.21-4.6,1.98-1.5,4.65-1.84,6.24-.29,7.45,7.16,14.57,6.34,22.02,0,3-2.56,6.97-1.4,10.99-1.55Z" fill="#479271" stroke-width="0"/>
</svg>