<?xml version="1.0" encoding="UTF-8"?>
<svg id="uuid-6e6eb289-818c-43f2-8a92-8372c95c0220" data-name="Layer 1" xmlns="http://www.w3.org/2000/svg" viewBox="0 0 80 80">
  <path d="M39.27,23.89c0-.1-.1-.21-.18-.29l-4.03-3.8c-.39-.36-.88-.55-1.43-.55h-8.48c-.1,0-.18,0-.29.05h0c-.18.08-.34.23-.42.42h0c0,.08-.05.18-.05.29v9.6h-9.6c-.42,0-.73.34-.73.73h0c0,.1-.05.21-.05.29l.08,8.35c0,.55.23,1.07.6,1.48l3.88,3.95h0c.52.52,1.22.81,1.92.81h16.75c1.51,0,2.71-1.22,2.71-2.71v-16.8c0-.68-.29-1.35-.73-1.82h.05ZM34.05,20.88l2.26,2.13h-7.08l-2.32-2.32h6.69c.18,0,.31.08.44.18h0ZM18.99,33.36l-2.34-2.32h8.22l2.32,2.32h-8.19ZM28.19,32.3l-2.32-2.32v-8.22l2.32,2.32v8.22ZM15.6,38.88l-.08-6.87,2.34,2.29v7.13l-2.08-2.11c-.1-.1-.18-.26-.18-.44h0ZM38.49,42.44c0,.68-.55,1.25-1.25,1.25h-16.67c-.68,0-1.25-.55-1.25-1.25v-7.62h9.6c.42,0,.73-.34.73-.73v-9.62h7.62c.68,0,1.25.55,1.25,1.25v16.73h-.03Z" fill="#008aff" stroke-width="0"/>
  <path d="M14.07,28.68h0c0-.08.05-.18.05-.29h0v-9.57h9.6c.42,0,.73-.34.73-.73s-.1-.44-.29-.57l-3.54-3.51c-.13-.26-.39-.44-.65-.44h-10.35c-.42,0-.73.34-.73.73v10.46h0c0,.08,0,.13.05.18,0,.08.08.13.13.18h0v.05h0l3.77,3.77c.08.08.16.13.26.16h0c.18.08.36.08.52,0h0c.18-.08.34-.21.42-.42h.03ZM10.35,16.09l2.32,2.32v8.25l-2.32-2.32v-8.25ZM19.58,15.05l2.34,2.32h-8.22l-2.32-2.32h8.19Z" fill="#008aff" stroke-width="0"/>
  <path d="M14.33,50.37h-5.05c-.36,0-.68.29-.68.68v.31c0,.36.29.68.68.68h4.03v7.8c0,4.89-4.47,5.44-6.42,5.44s-.68.29-.68.68v.34c0,.36.29.68.68.68,5.02,0,8.12-2.73,8.12-7.13v-8.79c0-.36-.29-.68-.68-.7h0v.03Z" fill="#231f20" stroke-width="0"/>
  <path d="M22.91,50.56c-.1-.26-.34-.44-.62-.44h-.36c-.29,0-.52.18-.62.44l-6.14,15.48c-.13.34.03.75.39.88.08.03.16.05.23.05h.36c.29,0,.52-.18.62-.42l1.9-4.68h6.82l1.92,4.68c.1.26.34.42.62.42h.36c.36,0,.68-.29.68-.68s-.03-.23-.08-.31l-6.09-15.42h0ZM19.35,60.15l2.71-7,2.73,7h-5.44Z" fill="#231f20" stroke-width="0"/>
  <path d="M41.17,50.35h-.34c-.36,0-.68.29-.68.68v12.49l-8.87-12.85c-.13-.18-.29-.29-.52-.29h-.29c-.36-.03-.7.23-.73.62v15.32c0,.36.29.68.68.68h.34c.36,0,.68-.29.68-.68v-12.38l8.82,12.77c.13.18.34.29.57.29h.34c.36,0,.68-.29.68-.68v-15.27c0-.36-.31-.68-.7-.68h0l.03-.03Z" fill="#231f20" stroke-width="0"/>
  <path d="M52.57,65.31h-7.44v-5.77h7.21c.36,0,.68-.29.68-.68v-.34c0-.36-.29-.68-.68-.68h-7.21v-5.75h7.39c.36,0,.68-.29.68-.68v-.34c0-.36-.29-.68-.68-.68h-8.4c-.36,0-.68.29-.68.68v15.24c0,.36.29.68.68.68h8.45c.36,0,.68-.29.68-.68v-.34c0-.36-.34-.68-.7-.68h.03Z" fill="#231f20" stroke-width="0"/>
  <path d="M64.09,57.87c.39-.42.73-.91.94-1.46.39-1.09.39-2.34,0-3.43-.62-1.64-2.05-2.6-3.82-2.6h-6.16c-.36,0-.68.29-.68.68v15.24c0,.36.29.68.68.68h6.79c2.94,0,4.45-2.18,4.63-4.37.16-1.82-.62-3.82-2.34-4.76l-.03.03ZM61.8,65.31h-5.75v-6.29h5.75c2.05,0,2.97,1.59,2.97,3.15,0,.78-.23,1.59-.75,2.18s-1.27.94-2.21.94h0v.03ZM63.47,55.78c-.34.94-1.25,1.56-2.26,1.51h-5.12v-5.2h5.12c.99-.05,1.9.57,2.26,1.51.26.7.26,1.48,0,2.18h0Z" fill="#231f20" stroke-width="0"/>
  <path d="M73.32,52.07c.36,0,.68-.29.68-.68v-.29c0-.36-.29-.68-.68-.68h-6.84c-.36,0-.68.29-.68.68v.29c0,.36.29.68.68.68h2.55v13.24h-2.55c-.36,0-.68.29-.68.68v.34c0,.36.29.68.68.68h6.84c.36,0,.68-.29.68-.68v-.34c0-.36-.29-.68-.68-.68h-2.58v-13.24h2.58Z" fill="#231f20" stroke-width="0"/>
</svg>