<?xml version="1.0" encoding="UTF-8"?>
<svg id="uuid-9f7a0b0c-53de-487f-b882-a9ad80319b44" data-name="Layer 1" xmlns="http://www.w3.org/2000/svg" viewBox="0 0 80 80">
  <path d="M26.65,54.01v5.87q0,1.06-1.01,1.04h-2.39c0-.4-.06-.81-.09-1.18v-14.35c0-.49.14-.69.63-.66.75.03,1.5.03,2.21,0,.49,0,.63.14.63.6,0,1.75.03,3.51,0,5.26,0,.52.14.69.69.66,1.64-.03,3.31,0,4.95,0,.52,0,.66-.17.66-.66v-5.89h3.19c.09,0,.26.37.26.6v8.89c0,2.07.06,4.14.03,6.21,0,.14-.29.43-.46.43-.83.06-1.7,0-2.53.03-.46,0-.49-.26-.49-.6v-5.72c0-.49-.14-.63-.6-.6h-5.69v.09Z" fill="#fc5a26" stroke-width="0"/>
  <path d="M38.85,52.98c.06-1.87.26-3.71,1.27-5.32,1.27-2.01,3.08-3.05,5.46-3.11,1.44-.03,2.82.2,4.05,1.01,1.29.86,2.24,2.1,2.65,3.59.78,2.76.81,5.55-.32,8.22-.86,2.01-2.44,3.28-4.6,3.65-1.58.26-3.16.2-4.63-.58-1.75-.95-2.88-2.39-3.36-4.28-.26-1.04-.32-2.13-.49-3.19h-.03ZM49.31,52.4c-.03-.46-.06-1.15-.17-1.81-.09-.49-.29-.95-.46-1.44-.95-2.39-4.14-2.39-5.29-.72-.69.98-.92,2.07-.98,3.22-.09,1.73-.12,3.42.66,5.03.52,1.04,1.38,1.64,2.56,1.7,1.24.09,2.21-.4,2.85-1.5.78-1.32.81-2.82.83-4.51v.03Z" fill="#fc5925" stroke-width="0"/>
  <path d="M18.77,49.61h-.26c-.37,0-.83.12-1.12-.03-.23-.14-.32-.6-.43-.95-.4-1.38-2.56-1.67-3.77-1.15-.66.29-1.06.81-1.12,1.5-.06.63.29,1.15.86,1.44,1.01.46,2.04.89,3.08,1.29,1.18.46,2.3.95,3.25,1.78,1.87,1.64,2.01,5.55-.89,6.9-2.9,1.35-5.78,1.18-8.4-.66-1.12-.78-1.81-1.93-1.81-3.39,0-.4.14-.58.55-.58.81,0,1.61,0,2.42.03.17,0,.43.23.46.4.32,1.52,1.18,2.27,2.73,2.27.58,0,1.15-.06,1.7-.17.66-.14.98-.69,1.09-1.35.12-.69,0-1.38-.66-1.73-.95-.49-1.96-.83-2.96-1.27-1.44-.6-2.9-1.12-3.97-2.36-1.38-1.58-1.04-4.57.72-5.75,2.36-1.58,4.92-1.73,7.48-.72,1.67.66,2.67,2.01,2.88,3.85.06.4-.06.66-.55.63h-1.27,0Z" fill="#fb5a26" stroke-width="0"/>
  <path d="M53.51,35.67h3.34c.03.09.09.14.09.2,0,2.07,2.21,2.76,3.91,2.36.43-.12.89-.37,1.24-.66.69-.58.55-2.01-.23-2.44-.69-.37-1.41-.75-2.16-1.01-1.44-.52-2.82-1.09-4.08-1.96-2.07-1.44-2.21-4.74-.17-6.35,1.18-.95,2.5-1.35,3.97-1.41,1.64-.06,3.19.12,4.6,1.12,1.12.81,1.7,1.9,1.96,3.22.09.46-.06.78-.63.72-.75-.03-1.5,0-2.21,0-.17,0-.4-.2-.52-.37-.17-.29-.2-.63-.37-.92-.58-.95-1.9-1.32-3.13-1.01-.86.23-1.44.69-1.61,1.58-.14.78.32,1.27.92,1.55,1.06.49,2.16.86,3.22,1.29,1.32.52,2.65,1.06,3.51,2.27,1.5,2.07,1.24,5.43-1.84,6.58-2.53.95-5.06.81-7.39-.52-1.55-.89-2.42-2.3-2.36-4.26h-.03Z" fill="#fb5a26" stroke-width="0"/>
  <path d="M36.49,40.78h-2.1c-1.05,0-1.75-.5-2.1-1.5-.14-.43-.29-.83-.37-1.27-.09-.49-.37-.6-.81-.6h-4.46c-.52,0-.75.17-.86.69-.17.81-.49,1.58-.75,2.36-.03.12-.17.26-.29.26h-3.48c.46-1.27.83-2.42,1.27-3.57,1.44-3.85,2.88-7.71,4.31-11.56.27-.69.77-1.04,1.5-1.04.52,0,1.01.03,1.52,0,.46-.03.66.14.81.58.95,2.56,1.93,5.12,2.88,7.71.98,2.59,1.93,5.15,2.93,7.91v.03ZM26.91,34.66h3.13c.58,0,.66-.2.49-.69-.49-1.44-.95-2.88-1.41-4.31-.06-.17-.14-.32-.23-.49h-.17c-.58,1.75-1.18,3.54-1.81,5.46v.03Z" fill="#fc5926" stroke-width="0"/>
  <path d="M39.05,40.7v-16.02c.12,0,.2-.06.29-.06,2.3,0,4.63-.09,6.93.03,2.24.12,4.03,1.18,4.83,3.36.75,1.96.43,4.34-1.38,5.75-.69.55-1.58.92-2.44,1.09-1.35.23-2.73.23-4.08.26-.55,0-.75.14-.72.72.03,1.61,0,3.22,0,4.89h-3.39l-.03-.03ZM42.44,29.8h0v2.04c0,.37.12.55.52.52h2.67c1.04-.03,1.81-.46,2.21-1.47.4-1.06-.06-3.19-1.61-3.39-1.12-.14-2.27-.14-3.39-.14-.12,0-.32.29-.35.46-.03.66,0,1.35,0,2.04l-.06-.06Z" fill="#fc5a26" stroke-width="0"/>
  <path d="M55.41,44.81c.17,0,.37-.03.55-.03h6.15c2.27.03,4.14.92,5.12,3.05,1.15,2.47.37,5.87-2.65,6.84-1.01.32-2.1.4-3.16.52-.83.09-1.67.09-2.5.12-.06.86-.14,1.75-.17,2.62,0,.83.06,1.64,0,2.47,0,.17-.29.46-.46.49-.83.06-1.7.06-2.53,0-.17,0-.43-.29-.43-.43v-15.56s0-.03.09-.14v.06ZM58.72,49.99h0v1.9c0,.46.17.66.63.63.81-.03,1.61,0,2.42-.06.37,0,.78,0,1.12-.17,1.09-.46,1.61-1.64,1.27-2.9-.32-1.24-.98-1.87-2.39-1.93-.81,0-1.61,0-2.42-.03-.49,0-.63.2-.63.63v1.93Z" fill="#fc5a26" stroke-width="0"/>
  <path d="M16.42,40.73h-3.45v-12.54c0-1.01,0-.83-.86-.83h-3.16c-.26,0-.49-.03-.86-.06v-2.33c0-.14.26-.32.43-.35.26-.06.55,0,.83,0h11.5c.43,0,.66.06.58.6-.09.49,0,1.01,0,1.52,0,.37,0,.6-.55.58-1.27-.06-2.53,0-3.8,0-.52,0-.63.17-.63.66v12.77l-.03-.03Z" fill="#fc5925" stroke-width="0"/>
  <path d="M68.55,40.76v-16.13h3.16c.12,0,.29.26.29.4,0,4.95-.03,9.92-.06,14.87q0,.86-.86.86h-2.56.03Z" fill="#fc5a26" stroke-width="0"/>
</svg>